<svg xmlns="http://www.w3.org/2000/svg" viewBox="0 0 656 140" role="img" aria-label="markaui">
  <defs>
    <linearGradient id="mk-g" x1="0" y1="0" x2="1" y2="1">
      <stop offset="0" stop-color="#7d1f2e"/>
      <stop offset="0.55" stop-color="#9a2733"/>
      <stop offset="1" stop-color="#c9a227"/>
    </linearGradient>
  </defs>
  <!-- brand tile -->
  <rect x="10" y="22" width="96" height="96" rx="22" fill="url(#mk-g)"/>
  <rect x="11.5" y="23.5" width="93" height="93" rx="20.5" fill="none" stroke="#ffffff" stroke-opacity="0.18" stroke-width="1.5"/>
  <!-- monogram m -->
  <g fill="none" stroke="#ffffff" stroke-width="9" stroke-linecap="round" stroke-linejoin="round">
    <path d="M35.5 86.5 V67.75 Q35.5 56.5 46.75 56.5 Q58 56.5 58 67.75 V86.5"/>
    <path d="M58 67.75 Q58 56.5 69.25 56.5 Q80.5 56.5 80.5 67.75 V86.5"/>
  </g>
  <!-- wordmark: m a r k a u i -->
  <g fill="none" stroke="#f6efe4" stroke-width="13" stroke-linecap="round" stroke-linejoin="round">
    <!-- m -->
    <path d="M147 112 V66 Q147 52 160.5 52 Q174 52 174 66 V112"/>
    <path d="M174 66 Q174 52 187.5 52 Q201 52 201 66 V112"/>
    <!-- a -->
    <circle cx="262" cy="82" r="21"/>
    <path d="M283 52 V112"/>
    <!-- r -->
    <path d="M316 52 V112"/>
    <path d="M316 78 Q319 52 347 52"/>
    <!-- k -->
    <path d="M387 32 V112"/>
    <path d="M430 32 L392 84"/>
    <path d="M406 65 L432 112"/>
    <!-- a -->
    <circle cx="493" cy="82" r="21"/>
    <path d="M514 52 V112"/>
    <!-- u -->
    <path d="M554 52 V97 Q554 112 575 112 Q596 112 596 97 V52"/>
    <!-- i -->
    <path d="M636 52 V112"/>
  </g>
  <!-- gem tittle on the i -->
  <circle cx="636" cy="30" r="8" fill="#c9a227"/>
</svg>
